<mxfile host="65bd71144e">
    <diagram id="-3bLLaBL46jhrDySAdyo" name="PÃ¡gina-1">
        <mxGraphModel dx="728" dy="451" grid="1" gridSize="10" guides="1" tooltips="1" connect="1" arrows="1" fold="1" page="1" pageScale="1" pageWidth="827" pageHeight="1169" math="0" shadow="0">
            <root>
                <mxCell id="0"/>
                <mxCell id="1" parent="0"/>
                <mxCell id="2" value="escribir_archivo" style="rounded=0;whiteSpace=wrap;html=1;" vertex="1" parent="1">
                    <mxGeometry x="310" y="130" width="120" height="30" as="geometry"/>
                </mxCell>
                <mxCell id="3" value="FilosofiaMVC" style="rounded=0;whiteSpace=wrap;html=1;fillColor=#fa6800;fontColor=#000000;strokeColor=#C73500;" vertex="1" parent="1">
                    <mxGeometry x="310" y="60" width="120" height="30" as="geometry"/>
                </mxCell>
                <mxCell id="4" value="codigo1&lt;br&gt;codigo2" style="rounded=0;whiteSpace=wrap;html=1;" vertex="1" parent="1">
                    <mxGeometry x="310" y="90" width="120" height="40" as="geometry"/>
                </mxCell>
            </root>
        </mxGraphModel>
    </diagram>
</mxfile>